<svg id="Circle_Button_" data-name="Circle Button " xmlns="http://www.w3.org/2000/svg" width="48" height="48" viewBox="0 0 48 48">
  <rect id="Area_SIZE:MEDIUM_STATE:DEFAULT_STYLE:STYLE2_" data-name="Area [SIZE:MEDIUM][STATE:DEFAULT][STYLE:STYLE2]" width="48" height="48" rx="24" fill="#0058ff"/>
  <path id="Icon_awesome-instagram" data-name="Icon awesome-instagram" d="M8.962,6.605a4.6,4.6,0,1,0,4.6,4.6A4.589,4.589,0,0,0,8.962,6.605Zm0,7.585A2.988,2.988,0,1,1,11.951,11.2,2.994,2.994,0,0,1,8.962,14.19Zm5.856-7.773a1.072,1.072,0,1,1-1.072-1.072A1.07,1.07,0,0,1,14.819,6.417Zm3.044,1.088a5.305,5.305,0,0,0-1.448-3.756A5.34,5.34,0,0,0,12.659,2.3c-1.48-.084-5.916-.084-7.4,0A5.333,5.333,0,0,0,1.506,3.745,5.323,5.323,0,0,0,.058,7.5c-.084,1.48-.084,5.916,0,7.4a5.305,5.305,0,0,0,1.448,3.756A5.347,5.347,0,0,0,5.262,20.1c1.48.084,5.916.084,7.4,0a5.305,5.305,0,0,0,3.756-1.448A5.34,5.34,0,0,0,17.863,14.9c.084-1.48.084-5.912,0-7.393Zm-1.912,8.981a3.025,3.025,0,0,1-1.7,1.7c-1.18.468-3.98.36-5.284.36s-4.108.1-5.284-.36a3.025,3.025,0,0,1-1.7-1.7c-.468-1.18-.36-3.98-.36-5.284s-.1-4.108.36-5.284a3.025,3.025,0,0,1,1.7-1.7c1.18-.468,3.98-.36,5.284-.36s4.108-.1,5.284.36a3.025,3.025,0,0,1,1.7,1.7c.468,1.18.36,3.98.36,5.284S16.419,15.31,15.951,16.486Z" transform="translate(15.04 12.799)" fill="#1c2126"/>
</svg>
