<svg xmlns="http://www.w3.org/2000/svg" xmlns:xlink="http://www.w3.org/1999/xlink" width="723.662" height="618.78" viewBox="0 0 723.662 618.78">
  <defs>
    <clipPath id="clip-path">
      <rect id="Rettangolo_287" data-name="Rettangolo 287" width="723.662" height="618.78" transform="translate(0 0)" fill="none"/>
    </clipPath>
    <clipPath id="clip-path-2">
      <rect id="Rettangolo_284" data-name="Rettangolo 284" width="231.063" height="129.019" fill="none"/>
    </clipPath>
    <clipPath id="clip-path-3">
      <rect id="Rettangolo_285" data-name="Rettangolo 285" width="427.555" height="427.556" fill="none"/>
    </clipPath>
    <clipPath id="clip-path-4">
      <rect id="Rettangolo_286" data-name="Rettangolo 286" width="548.901" height="544.528" fill="none"/>
    </clipPath>
  </defs>
  <g id="Raggruppa_362" data-name="Raggruppa 362" transform="translate(0 -0.004)">
    <g id="Raggruppa_361" data-name="Raggruppa 361" transform="translate(0 0.004)" clip-path="url(#clip-path)">
      <g id="Raggruppa_354" data-name="Raggruppa 354" transform="translate(492.6 66.277)" style="isolation: isolate">
        <g id="Raggruppa_353" data-name="Raggruppa 353">
          <g id="Raggruppa_352" data-name="Raggruppa 352" clip-path="url(#clip-path-2)">
            <path id="Tracciato_319" data-name="Tracciato 319" d="M2381.718,448.975l-3.651-3.118,107.527-125.9H2609.13v4.8H2487.808Z" transform="translate(-2378.068 -319.956)" fill="#fdbd05"/>
          </g>
        </g>
      </g>
      <g id="Raggruppa_357" data-name="Raggruppa 357" transform="translate(59.684 135.04)" style="isolation: isolate">
        <g id="Raggruppa_356" data-name="Raggruppa 356">
          <g id="Raggruppa_355" data-name="Raggruppa 355" clip-path="url(#clip-path-3)">
            <path id="Tracciato_320" data-name="Tracciato 320" d="M715.273,852.27q-.414-6.726-1.246-13.375-.832-6.675-2.086-13.269t-2.921-13.111q-1.671-6.5-3.752-12.9-2.074-6.373-4.556-12.638-.9-2.261-1.846-4.51-1.671-3.95-3.495-7.814-2.866-6.092-6.1-11.968-3.241-5.894-6.841-11.56l-62.41,39.609q2.358,3.709,4.479,7.561t3.987,7.833q1.869,3.968,3.488,8.065.591,1.494,1.15,3.008.965,2.61,1.822,5.266,1.357,4.173,2.446,8.44t1.911,8.577q.367,1.926.679,3.865.385,2.4.686,4.815.547,4.353.819,8.747t.276,8.783q0,2.218-.07,4.433-.068,2.175-.206,4.35-.274,4.385-.826,8.747t-1.366,8.68q-.457,2.43-1.006,4.839-.425,1.872-.9,3.735-1.087,4.256-2.441,8.442v0q-1.357,4.18-2.972,8.267-1.037,2.632-2.182,5.216-.637,1.437-1.3,2.854-1.872,3.99-3.987,7.833-2.117,3.86-4.474,7.566t-4.945,7.266q-2.581,3.55-5.393,6.935t-5.823,6.582q-3,3.186-6.217,6.21a.252.252,0,0,0-.029.026q-3.2,3.006-6.555,5.79-3.392,2.812-6.935,5.4t-7.261,4.952q-3.712,2.358-7.564,4.477t-7.83,3.989h0q-3.968,1.869-8.065,3.488-1.494.59-3.005,1.15-2.611.965-5.264,1.822-4.177,1.354-8.442,2.444t-8.577,1.911q-1.926.367-3.865.679-2.4.385-4.815.689-4.357.547-8.749.819t-8.781.276q-2.218,0-4.433-.07-2.175-.068-4.35-.206-4.382-.274-8.747-.826t-8.68-1.366q-2.43-.461-4.842-1.006-1.872-.425-3.735-.9-4.256-1.087-8.442-2.444t-8.27-2.972q-2.632-1.033-5.214-2.18-1.437-.637-2.854-1.3-3.99-1.872-7.832-3.987-3.86-2.117-7.566-4.474t-7.264-4.945q-3.546-2.582-6.937-5.4-3.37-2.8-6.582-5.821-3.187-3-6.207-6.219l-.029-.029q-3.007-3.2-5.79-6.555-2.812-3.392-5.4-6.935t-4.95-7.261q-2.362-3.708-4.479-7.561t-3.992-7.83q-1.869-3.968-3.485-8.068-.594-1.494-1.15-3.005-.965-2.61-1.822-5.264-1.354-4.177-2.446-8.442t-1.911-8.577q-.367-1.926-.679-3.865-.385-2.4-.686-4.818-.547-4.357-.819-8.747t-.276-8.783q0-2.218.07-4.431.068-2.175.206-4.349.274-4.385.826-8.747t1.366-8.68q.457-2.431,1.006-4.842.425-1.872.9-3.735,1.087-4.256,2.441-8.442t2.974-8.269q1.033-2.632,2.18-5.214.637-1.437,1.3-2.854,1.872-3.989,3.987-7.832,2.117-3.86,4.474-7.566t4.945-7.266q2.585-3.55,5.4-6.935v0q2.8-3.374,5.821-6.58,3-3.186,6.217-6.21a.288.288,0,0,0,.029-.026q3.2-3.007,6.558-5.79,3.392-2.812,6.935-5.394t7.261-4.952q3.709-2.362,7.561-4.482t7.83-3.989q3.968-1.869,8.068-3.488,1.494-.594,3.005-1.15,2.611-.965,5.264-1.822,4.177-1.354,8.442-2.444t8.577-1.913c1.284-.242,2.573-.47,3.865-.677q2.4-.385,4.815-.687,4.357-.551,8.75-.821t8.781-.276q2.218,0,4.433.072,2.175.068,4.35.207,4.382.274,8.744.823t8.682,1.368q2.43.461,4.842,1.006,1.872.425,3.735.9,4.256,1.087,8.442,2.441t8.269,2.974q2.632,1.033,5.214,2.18,1.437.637,2.854,1.3,3.99,1.872,7.833,3.987,3.86,2.117,7.564,4.474h0q3.712,2.355,7.266,4.945t6.935,5.4h0q3.37,2.8,6.579,5.821,3.187,3,6.207,6.217l.029.029q3.006,3.2,5.79,6.558,2.809,3.385,5.387,6.92a.042.042,0,0,0,.01.012q2.589,3.55,4.942,7.247l62.405-39.6q-3.6-5.664-7.547-11.094l0,0q-3.946-5.422-8.245-10.6-4.278-5.156-8.893-10.065-2.3-2.441-4.671-4.825t-4.825-4.671q-4.907-4.616-10.065-8.891-5.181-4.3-10.6-8.248t-11.1-7.554q-5.667-3.6-11.563-6.841-5.873-3.23-11.969-6.1-3.863-1.818-7.813-3.492-2.247-.951-4.513-1.846-6.261-2.481-12.636-4.556-6.4-2.081-12.9-3.75t-13.111-2.924q-6.593-1.249-13.269-2.084-6.647-.828-13.372-1.243-6.679-.411-13.426-.413t-13.423.413q-6.723.414-13.373,1.246-6.679.832-13.269,2.083t-13.111,2.924q-6.5,1.667-12.9,3.752-6.373,2.074-12.636,4.556-2.265.9-4.513,1.846-3.95,1.67-7.813,3.492-6.092,2.87-11.969,6.1-5.894,3.24-11.56,6.841t-11.1,7.557q-5.423,3.946-10.6,8.245-5.156,4.278-10.065,8.893-2.441,2.293-4.822,4.671t-4.674,4.825q-4.613,4.908-8.891,10.065-4.3,5.181-8.245,10.6t-7.556,11.1q-3.6,5.667-6.839,11.56-3.23,5.876-6.1,11.969-1.818,3.867-3.493,7.816-.95,2.247-1.846,4.513-2.481,6.261-4.556,12.636-2.081,6.4-3.749,12.9T291.87,825.64q-1.253,6.589-2.086,13.269-.828,6.647-1.243,13.373-.41,6.679-.41,13.425t.41,13.423q.418,6.722,1.246,13.373.836,6.675,2.086,13.269t2.924,13.111q1.667,6.5,3.75,12.9,2.074,6.373,4.558,12.636.9,2.265,1.844,4.51,1.674,3.953,3.495,7.816,2.866,6.092,6.1,11.969t6.841,11.56q3.6,5.667,7.557,11.1t8.245,10.6q4.278,5.156,8.893,10.065,2.3,2.442,4.674,4.823t4.822,4.673q4.907,4.612,10.065,8.891,5.181,4.3,10.6,8.246t11.1,7.556q5.667,3.6,11.563,6.839,5.873,3.23,11.969,6.1,3.863,1.822,7.813,3.495,2.251.951,4.513,1.844,6.261,2.484,12.636,4.558,6.4,2.081,12.9,3.75t13.111,2.921q6.593,1.25,13.269,2.083,6.647.832,13.373,1.246,6.679.41,13.426.41t13.423-.413q6.722-.414,13.372-1.243,6.679-.835,13.269-2.086t13.111-2.924q6.5-1.667,12.9-3.749,6.373-2.074,12.636-4.559,2.265-.9,4.513-1.846,3.95-1.671,7.813-3.493,6.092-2.866,11.968-6.1,5.894-3.241,11.56-6.841t11.107-7.556q5.419-3.946,10.6-8.245,5.156-4.278,10.065-8.893,2.441-2.3,4.822-4.674t4.674-4.823q4.616-4.907,8.891-10.065,4.3-5.181,8.245-10.6t7.557-11.107q3.6-5.664,6.839-11.56,3.229-5.876,6.1-11.969,1.818-3.867,3.492-7.816.951-2.247,1.846-4.51,2.481-6.261,4.556-12.636,2.081-6.4,3.749-12.9t2.921-13.111q1.253-6.593,2.086-13.269.828-6.65,1.243-13.375.41-6.676.41-13.423t-.41-13.423" transform="translate(-288.13 -651.921)" fill="#0058ff"/>
          </g>
        </g>
      </g>
      <path id="Tracciato_321" data-name="Tracciato 321" d="M1268.747,725.839q-4.393,0-8.781.276l-4.645-73.781q6.679-.411,13.423-.413Z" transform="translate(-995.291 -516.881)" fill="#d2dade"/>
      <path id="Tracciato_322" data-name="Tracciato 322" d="M627.918,985.549q-3.215,3.021-6.217,6.21l-53.879-50.593q2.3-2.441,4.673-4.825t4.823-4.671Z" transform="translate(-450.202 -738.682)" fill="#d2dade"/>
      <path id="Tracciato_323" data-name="Tracciato 323" d="M1090.379,742.622q-4.317.821-8.577,1.913L1063.41,672.91q6.506-1.667,13.111-2.924Z" transform="translate(-843.132 -531.204)" fill="#d2dade"/>
      <path id="Tracciato_324" data-name="Tracciato 324" d="M670.85,945.693q-3.356,2.787-6.558,5.79a.3.3,0,0,1-.029.026l-50.6-53.879q4.908-4.616,10.065-8.893Z" transform="translate(-486.547 -704.642)" fill="#d2dade"/>
      <path id="Tracciato_325" data-name="Tracciato 325" d="M1208.782,727.694q-4.389.27-8.75.821l-9.268-73.356q6.647-.832,13.373-1.246Z" transform="translate(-944.107 -518.461)" fill="#d2dade"/>
      <path id="Tracciato_326" data-name="Tracciato 326" d="M975.622,772.53q-2.654.857-5.264,1.822-1.512.558-3.005,1.15l-27.216-68.733q6.261-2.481,12.636-4.556Z" transform="translate(-745.395 -556.756)" fill="#d2dade"/>
      <path id="Tracciato_327" data-name="Tracciato 327" d="M1149.242,733.284q-2.416.3-4.815.686-1.937.31-3.865.677L1126.7,662.011q6.589-1.25,13.269-2.083Z" transform="translate(-893.316 -523.23)" fill="#d2dade"/>
      <path id="Tracciato_328" data-name="Tracciato 328" d="M1032.428,755.726q-4.263,1.088-8.442,2.444l-22.849-70.317q6.4-2.085,12.9-3.752Z" transform="translate(-793.758 -542.395)" fill="#d2dade"/>
      <path id="Tracciato_329" data-name="Tracciato 329" d="M716.31,908.738q-3.543,2.582-6.935,5.394l-47.122-56.956q5.182-4.3,10.6-8.246Z" transform="translate(-525.072 -673.081)" fill="#d2dade"/>
      <path id="Tracciato_330" data-name="Tracciato 330" d="M920.173,792.94q-4.1,1.617-8.068,3.488l-31.474-66.882q3.863-1.819,7.813-3.493,2.251-.951,4.513-1.846Z" transform="translate(-698.215 -574.194)" fill="#d2dade"/>
      <path id="Tracciato_331" data-name="Tracciato 331" d="M764.154,874.864q-3.7,2.355-7.261,4.952l-43.454-59.808q5.433-3.957,11.1-7.556Z" transform="translate(-565.655 -644.159)" fill="#d2dade"/>
      <path id="Tracciato_332" data-name="Tracciato 332" d="M866.3,816.861q-3.982,1.869-7.83,3.99l-35.612-64.773q5.876-3.229,11.968-6.1Z" transform="translate(-652.405 -594.627)" fill="#d2dade"/>
      <path id="Tracciato_333" data-name="Tracciato 333" d="M814.217,844.2q-3.853,2.117-7.561,4.482l-39.611-62.413q5.667-3.6,11.56-6.841Z" transform="translate(-608.156 -617.974)" fill="#d2dade"/>
      <g id="Raggruppa_360" data-name="Raggruppa 360" transform="translate(0 74.252)" style="isolation: isolate">
        <g id="Raggruppa_359" data-name="Raggruppa 359">
          <g id="Raggruppa_358" data-name="Raggruppa 358" clip-path="url(#clip-path-4)">
            <path id="Tracciato_334" data-name="Tracciato 334" d="M322.888,902.992l-1.144-6.379c145.4-26.078,242.482-165.588,216.4-310.991s-165.588-242.482-310.991-216.4S-15.325,534.8,10.752,680.208l-6.379,1.144A273.12,273.12,0,0,1,23.418,522.074,275.179,275.179,0,0,1,124.692,402.916a274.03,274.03,0,0,1,260.6-21.035A275.176,275.176,0,0,1,504.448,483.157a274.027,274.027,0,0,1,21.035,260.6A275.173,275.173,0,0,1,424.208,862.912a272.67,272.67,0,0,1-101.32,40.079" transform="translate(0 -358.463)" fill="#fdbd05"/>
          </g>
        </g>
      </g>
      <path id="Tracciato_335" data-name="Tracciato 335" d="M976.86,1523.571a22.505,22.505,0,0,1-9.761-8.779,22.818,22.818,0,0,1-3.119-11.551,19.753,19.753,0,0,1,2.368-9.934,20.883,20.883,0,0,1,5.429-6.469,17.108,17.108,0,0,1,5.6-3v-.578a17.852,17.852,0,0,1-7.335-6.122,18.3,18.3,0,0,1-3.523-11.436,22.262,22.262,0,0,1,2.888-10.974,21.732,21.732,0,0,1,8.952-8.49q6.064-3.292,15.19-3.292,9.24,0,15.306,3.35a21.716,21.716,0,0,1,8.895,8.548,22.415,22.415,0,0,1,2.83,10.858,18.887,18.887,0,0,1-1.848,8.548,19.453,19.453,0,0,1-4.389,5.949,16.113,16.113,0,0,1-4.62,3.061v.578a17.148,17.148,0,0,1,5.6,3,20.931,20.931,0,0,1,5.429,6.469,19.772,19.772,0,0,1,2.368,9.934,22.82,22.82,0,0,1-3.119,11.551,22.517,22.517,0,0,1-9.761,8.779q-6.644,3.35-16.692,3.35t-16.692-3.35m28.3-12.418a13.6,13.6,0,0,0,3.87-9.645,13.741,13.741,0,0,0-3.87-9.761q-3.872-4.1-11.609-4.1-7.856,0-11.724,4.1a13.874,13.874,0,0,0-3.87,9.877,13.332,13.332,0,0,0,3.87,9.645q3.868,3.985,11.609,3.985,7.854,0,11.724-4.1m-1.271-35.693a12.711,12.711,0,0,0-.058-17.385q-3.465-3.7-10.281-3.7-6.931,0-10.338,3.7a12.864,12.864,0,0,0,0,17.443q3.406,3.582,10.338,3.581t10.339-3.639" transform="translate(-764.299 -1144.049)" fill="#93a4b1"/>
      <path id="Tracciato_336" data-name="Tracciato 336" d="M1305.7,1529.666l30.958-65.843v-.809h-40.314v-12.822h53.829v14.093l-29.8,66.767H1305.7Z" transform="translate(-1027.813 -1149.797)" fill="#93a4b1"/>
      <path id="Tracciato_337" data-name="Tracciato 337" d="M1585.847,1663.622a9.582,9.582,0,0,1-.028-11.317q1.835-2.363,5.672-2.363t5.589,2.336a9.183,9.183,0,0,1,1.751,5.672,9.3,9.3,0,0,1-1.751,5.7q-1.752,2.364-5.589,2.363a6.709,6.709,0,0,1-5.644-2.391m8.647-5.672q0-4.171-2.892-4.171t-2.892,4.171q0,4.171,2.892,4.171t2.892-4.171m17.072-7.452h5.672l-20.075,38.927h-5.672Zm.194,37.064a8.985,8.985,0,0,1-1.863-5.644,8.871,8.871,0,0,1,1.863-5.616,6.711,6.711,0,0,1,5.644-2.391q3.837,0,5.589,2.363a9.216,9.216,0,0,1,1.752,5.644,9.334,9.334,0,0,1-1.752,5.672q-1.752,2.392-5.589,2.391a6.676,6.676,0,0,1-5.644-2.419m8.063-2.669a6.75,6.75,0,0,0,.584-2.975q0-4.171-2.892-4.171t-2.892,4.171q0,4.171,2.892,4.171a2.313,2.313,0,0,0,2.308-1.2" transform="translate(-1255.873 -1308.169)" fill="#93a4b1"/>
      <path id="Tracciato_338" data-name="Tracciato 338" d="M2952.922,53.935a14.727,14.727,0,0,1-8.556-13.512,13.448,13.448,0,0,1,1.51-6.5,14.29,14.29,0,0,1,3.6-4.452,12.918,12.918,0,0,1,4.026-2.284v-.31a12.458,12.458,0,0,1-4.994-4.258,12.427,12.427,0,0,1-2.284-7.588,14.711,14.711,0,0,1,1.936-7.317,14.224,14.224,0,0,1,5.963-5.575A20.819,20.819,0,0,1,2963.956,0a20.417,20.417,0,0,1,9.911,2.168,14.306,14.306,0,0,1,5.846,5.614,14.806,14.806,0,0,1,1.9,7.24,12.314,12.314,0,0,1-2.362,7.627,12.581,12.581,0,0,1-4.917,4.22v.31a13.709,13.709,0,0,1,3.988,2.284,14.032,14.032,0,0,1,3.639,4.452,13.446,13.446,0,0,1,1.51,6.5,14.678,14.678,0,0,1-8.595,13.512,24.468,24.468,0,0,1-10.995,2.207,24.213,24.213,0,0,1-10.957-2.207m19.628-7.472a9.525,9.525,0,0,0,2.942-6.969,9.744,9.744,0,0,0-2.942-7.085q-2.943-2.98-8.672-2.981t-8.634,2.942a9.77,9.77,0,0,0-2.9,7.123,9.549,9.549,0,0,0,2.9,7.008q2.9,2.9,8.634,2.9t8.672-2.942m-1.084-24.584a8.656,8.656,0,0,0,2.555-6.311,8.827,8.827,0,0,0-2.555-6.311q-2.555-2.671-7.588-2.671t-7.55,2.633a8.857,8.857,0,0,0-2.517,6.349,8.723,8.723,0,0,0,2.517,6.311q2.516,2.6,7.55,2.594t7.588-2.594" transform="translate(-2334.462 -0.005)" fill="#fd7e00"/>
      <path id="Tracciato_339" data-name="Tracciato 339" d="M3174.856,58.136l20.751-45.3v-.619h-27.333V4.863h35.153v8.053l-20.287,46.149h-8.285Z" transform="translate(-2511.99 -3.857)" fill="#fd7e00"/>
      <path id="Tracciato_340" data-name="Tracciato 340" d="M3358.834,150.3a6.295,6.295,0,0,1-.018-7.434,4.424,4.424,0,0,1,3.726-1.553,4.29,4.29,0,0,1,3.672,1.534,6.032,6.032,0,0,1,1.151,3.726,6.111,6.111,0,0,1-1.151,3.745,4.267,4.267,0,0,1-3.672,1.553,4.407,4.407,0,0,1-3.708-1.571m5.5-1.535a5.02,5.02,0,0,0,.438-2.192q0-3.1-2.192-3.105a1.774,1.774,0,0,0-1.772.95,4.91,4.91,0,0,0-.457,2.155,4.718,4.718,0,0,0,.475,2.174,1.786,1.786,0,0,0,1.753.932,1.749,1.749,0,0,0,1.753-.913m11.91-7.087h3.251l-13.188,25.573h-3.251Zm.128,24.367a6.267,6.267,0,0,1-.019-7.416,4.4,4.4,0,0,1,3.726-1.571,4.278,4.278,0,0,1,3.654,1.553,5.993,5.993,0,0,1,1.169,3.708,6.069,6.069,0,0,1-1.169,3.726,4.255,4.255,0,0,1-3.654,1.571,4.407,4.407,0,0,1-3.708-1.571m5.5-1.516a5,5,0,0,0,.438-2.21,5.219,5.219,0,0,0-.42-2.192,2.128,2.128,0,0,0-3.507.018,4.879,4.879,0,0,0-.457,2.174q0,3.106,2.192,3.105a1.757,1.757,0,0,0,1.753-.9" transform="translate(-2662.106 -112.039)" fill="#fd7e00"/>
    </g>
  </g>
</svg>
