<svg id="Raggruppa_383" data-name="Raggruppa 383" xmlns="http://www.w3.org/2000/svg" xmlns:xlink="http://www.w3.org/1999/xlink" width="163.431" height="163.602" viewBox="0 0 163.431 163.602">
  <defs>
    <linearGradient id="linear-gradient" x1="0.5" x2="0.147" y2="1" gradientUnits="objectBoundingBox">
      <stop offset="0" stop-color="#0058ff"/>
      <stop offset="0.345" stop-color="#068cff"/>
      <stop offset="1" stop-color="#febe03"/>
    </linearGradient>
    <clipPath id="clip-path">
      <rect id="Rettangolo_311" data-name="Rettangolo 311" width="163.431" height="163.602" fill="url(#linear-gradient)"/>
    </clipPath>
  </defs>
  <g id="Raggruppa_382" data-name="Raggruppa 382" clip-path="url(#clip-path)">
    <path id="Tracciato_371" data-name="Tracciato 371" d="M81.616,163.6a35.156,35.156,0,0,1-24.782-10.306l-8.988-9,.358-.357-.5.019a154.05,154.05,0,0,1,4.344-42.738l.4-1.63L53,101.172a29.2,29.2,0,0,0,45.2,13.567,28.647,28.647,0,0,0,5.012-4.934L154.553,58.38l.352.409a35.419,35.419,0,0,1-1.751,47.859l-46.573,46.634A35.15,35.15,0,0,1,81.794,163.6ZM48.691,143.726l8.851,8.862A34.152,34.152,0,0,0,81.611,162.6h.172a34.155,34.155,0,0,0,24.09-10.024l46.573-46.635a34.416,34.416,0,0,0,2.05-46.087l-50.539,50.615a29.345,29.345,0,0,1-5.15,5.065,30.2,30.2,0,0,1-46.17-12.511,153.059,153.059,0,0,0-3.946,40.7m-5.185-3.782-33.24-33.3A35.314,35.314,0,0,1,10.283,56.9L52.346,14.81l.351.285c1.266,1.034,2.551,2.113,3.818,3.209.3.261.608.518.912.776.465.393.93.785,1.384,1.191,2.136,1.9,4.246,3.869,6.273,5.851.076.075.154.147.231.218s.165.151.245.229c2.184,2.148,4.334,4.375,6.392,6.62.406.44.8.89,1.191,1.341q.376.432.758.863c.263.293.518.589.774.887l.4.461,0,0,.365.416c.619.7,1.238,1.406,1.841,2.12l.262.31-.249.319A161.1,161.1,0,0,0,51.547,88.068l-.121.518A156.991,156.991,0,0,0,43.5,138.727ZM52.414,16.156,10.991,57.6a34.314,34.314,0,0,0-.017,48.336L42.5,137.519a157.827,157.827,0,0,1,7.967-49.2l.122-.52A162.089,162.089,0,0,1,76.256,39.612c-.515-.6-1.04-1.2-1.565-1.8l-.362-.412,0,0-.409-.473c-.252-.293-.5-.585-.763-.874s-.512-.58-.766-.871c-.386-.445-.773-.888-1.174-1.323-2.046-2.232-4.184-4.447-6.356-6.583-.071-.069-.146-.137-.22-.2s-.173-.159-.257-.242c-2.013-1.969-4.112-3.927-6.236-5.818-.448-.4-.906-.786-1.364-1.173-.308-.26-.616-.521-.921-.784-1.144-.988-2.3-1.963-3.447-2.9m56.579,82.017.286-1.576a29.313,29.313,0,0,0-1.573-16.013A184.665,184.665,0,0,0,81.783,38.217a191.591,191.591,0,0,0-26.068-26l-.425-.351,1.558-1.559a35.2,35.2,0,0,1,49.738,0L151.7,55.444ZM56.776,11.794a192.641,192.641,0,0,1,25.78,25.788A185.766,185.766,0,0,1,108.629,80.2a30.319,30.319,0,0,1,1.872,15.05l39.786-39.805-44.408-44.43a34.2,34.2,0,0,0-48.3-.02Z" fill="url(#linear-gradient)"/>
  </g>
</svg>
