<svg xmlns="http://www.w3.org/2000/svg" xmlns:xlink="http://www.w3.org/1999/xlink" width="330.128" height="214.545" viewBox="0 0 330.128 214.545">
  <defs>
    <linearGradient id="linear-gradient" x1="1.038" y1="0.193" x2="-0.115" y2="1.086" gradientUnits="objectBoundingBox">
      <stop offset="0" stop-color="#0058ff"/>
      <stop offset="0.332" stop-color="#148ff1"/>
      <stop offset="1" stop-color="#febe03"/>
    </linearGradient>
    <clipPath id="clip-path">
      <rect id="Rettangolo_20" data-name="Rettangolo 20" width="330.128" height="214.545" fill="url(#linear-gradient)"/>
    </clipPath>
  </defs>
  <g id="Raggruppa_20" data-name="Raggruppa 20" transform="translate(0 -0.005)">
    <g id="Raggruppa_19" data-name="Raggruppa 19" transform="translate(0 0.005)" clip-path="url(#clip-path)">
      <path id="Tracciato_43" data-name="Tracciato 43" d="M244.395,150.472c-.309,0-.983-.456-3.372-2.438-4.633-3.846-7.109-11.219-7.959-14.21l-.088-.311.283-.156c10.54-5.809,11.464-13.073,11.076-16.886l-.062-.611.587.181a15.5,15.5,0,0,0,3.1.4,16.8,16.8,0,0,1,4.917.819c2.575,1.048,3.787,2.983,4.857,4.69a11.126,11.126,0,0,0,1.626,2.2l.31.291-.3.3a25.559,25.559,0,0,1-3.312,2.594c-4.707,3.247-4.462,12.016-4.459,12.1l0,.08-.028.075a30.486,30.486,0,0,1-6.817,10.62.419.419,0,0,1-.111.145.36.36,0,0,1-.246.118m-10.46-16.562c2.56,8.785,6.461,12.547,7.607,13.5,1.7,1.413,2.424,1.94,2.723,2.136a30.3,30.3,0,0,0,6.513-10.165c-.022-.982-.061-9.359,4.812-12.72a27.6,27.6,0,0,0,2.909-2.225,14.181,14.181,0,0,1-1.456-2.055c-1-1.6-2.142-3.419-4.474-4.368a16.243,16.243,0,0,0-4.666-.762,22.388,22.388,0,0,1-2.712-.289c.251,4.1-1.067,11.219-11.256,16.951m-76.589,29.84-.154-.133c-2.944-2.552-2.907-6.625-2.878-9.9a12.368,12.368,0,0,0-.472-4.672c-.7-1.52-1.9-1.187-3.951-.467a8.227,8.227,0,0,1-4.019.7c-1.565-.28-2.94.307-5.023,1.2a41.013,41.013,0,0,1-7.212,2.468c-2.728.644-4.22,1.122-5.537,1.544a48.227,48.227,0,0,1-8.812,1.991,13.166,13.166,0,0,1-4.609-.132l-1.184-.234,1.084-.531c5.416-2.649,12.905-8.183,17.831-19.5.3-.69,1.673-1.39,3.888-2.476.921-.452,1.874-.919,2.678-1.377l.244-.139.217.179c2.288,1.9,4.758,3.579,7.309,3.04,5.679-1.2,6.2-1.224,10.2,1.387,3.652,2.387,6.7,9.415,7.177,10.57,6.636,3.069,7.3,7.92,7.323,8.126l.015.127-.06.113c-3.006,5.664-13.413,7.983-13.854,8.079Zm-5.024-16.583a2.325,2.325,0,0,1,2.259,1.54,12.777,12.777,0,0,1,.547,5.019c-.028,3.2-.061,6.825,2.445,9.139,1.451-.349,10.35-2.662,13.043-7.5-.149-.746-1.213-4.824-6.977-7.431l-.148-.067-.061-.151c-.032-.079-3.245-7.935-6.931-10.345s-3.968-2.455-9.585-1.272c-2.8.591-5.394-1.08-7.78-3.032-.769.425-1.636.85-2.478,1.263-1.472.722-3.3,1.62-3.5,2.07-4.692,10.783-11.68,16.426-17.094,19.331a11.774,11.774,0,0,0,3.1-.061,47.612,47.612,0,0,0,8.691-1.962c1.331-.426,2.84-.91,5.6-1.561a40.334,40.334,0,0,0,7.08-2.425c2.137-.912,3.681-1.572,5.485-1.249a7.538,7.538,0,0,0,3.607-.665,8.716,8.716,0,0,1,2.7-.645M69.5,214.55a7.476,7.476,0,0,1-4.521-1.146c-.806-.627-1.282-1-1.556-1.212s-.465-.365-.5-.53c-.164-.152-.465-.42-1.016-.893-1.855-1.59-1.271-4.12-.707-6.566.426-1.847.866-3.755.248-5.2-.98-.266-5.04-1.693-6.232-7.259l-.034-.157.083-.138c.078-.13,7.8-13.106,7.375-21.193-.446-8.473,5.091-19.336,11.177-21.93,3.572-1.522,4.538-6.153,5.658-11.514a52.688,52.688,0,0,1,2.612-9.486,11.231,11.231,0,0,1,4.486-5.219c-8.372,2.76-10.749,17.739-10.775,17.906l-.229,1.51-.552-1.424c-4.124-10.641-5.992-19.788-5.556-27.2-5.591-.832-8.766.561-11.258,4.9C53.91,125.285,44.6,130,29.747,132.209a13.007,13.007,0,0,1-9.38-1.7A9.128,9.128,0,0,1,16,130.207c-2.129-.669-3.7-4.03-4.495-6.157h-.059l-.055-.308a31.587,31.587,0,0,1-1.355-5.049,21.556,21.556,0,0,0-6.826-9.49L0,106.763l3.636,1.749c.124.06,1.859.9,3.543,1.787A18.269,18.269,0,0,0,.2,106.561l.145-.8a29.841,29.841,0,0,1,13.262,5.352c1.715,1.192,3.083,2.1,4.183,2.838,3.331,2.221,4.453,2.969,6.514,5.671,1.87,2.452,2.167,4.7.883,6.689a4.531,4.531,0,0,1-.122.475,4.776,4.776,0,0,1-.683,1.363c10.342,2.762,26.107-8.063,29.3-16C57.069,103.71,68.953,99.1,75.815,97.082a35.65,35.65,0,0,1,6.529-5.274c.724-.487,1.349-.907,1.88-1.31,2.066-1.567,5.124-4.2,8.665-7.255,8.426-7.262,19.966-17.206,27.727-20.932,5.389-2.587,8.878-5.97,12.253-9.242a57.115,57.115,0,0,1,5.353-4.78c24.1-29.36,36.211-35.5,50.23-42.613,1.44-.731,2.93-1.486,4.44-2.272,8.46-4.4,18.622-3.731,25.657-2.4A67.635,67.635,0,0,1,231.9,4.991l.812.362-.158.074c12.786,5.282,41.381,17.806,50.844,27.831a90.44,90.44,0,0,1,13.348,18.02,43,43,0,0,0,4.744,2.186c9.689,3.8,15.668,7.076,19.993,10.952a24.567,24.567,0,0,1,8.5,17.706l.147,2.224-.923-2.029c-.062-.137-6.388-13.736-19.223-15.973-1.946-.339-3.933-.61-5.855-.872q-.857-.117-1.71-.235c.081.511.155,1.037.222,1.571.789.548,1.628,1.088,2.5,1.607,9.276,5.513,14.876,10.064,18.725,15.218,4.713,6.311,6.681,13.467,6.193,22.519l-.143,2.653-.658-2.574c-.045-.175-4.616-17.548-17.267-21.383-1.909-.579-3.869-1.078-5.765-1.561-1.373-.35-2.789-.71-4.171-1.1a30.131,30.131,0,0,1-8.8,17.614,55.586,55.586,0,0,1-11.652,8.838c-.445.268-.833.5-1.154.7-2.486,1.565-6.215,5.454-8.938,8.294-2.444,2.549-3.644,3.783-4.212,3.965-4.225,1.356-5.606-.851-7.069-3.188-1.046-1.672-2.233-3.568-4.666-4.558a16.916,16.916,0,0,0-4.87-.793c-2.314-.157-4.313-.293-4.848-1.522-.385-.884.1-2.119,1.54-3.887a13.817,13.817,0,0,0,2.663-5.32l.051-.2.032-.013c1.746-4.437,1.084-9.571-1.968-15.263l-.022-.041-.012-.045c-1-3.675-2.687-11.655-.514-17.742-1.248,2.272-2.582,6.254-2,12.451l.137,1.446-.868-1.164a58,58,0,0,0-5.118-5.928,41.52,41.52,0,0,1,7.33,17.023,23.43,23.43,0,0,1-.427,10.477c-.055.161-.106.312-.159.464l-.01.027c-2.709,7.754-7.868,16.608-9.812,19.944-3.354,5.755-5.811,7.3-9.692,7.3a29.253,29.253,0,0,1-3.956-.349c-5.909-.825-11.9,6.082-11.964,6.152l-.052.061-.072.037a31.729,31.729,0,0,1-12.707,3.344.421.421,0,0,1-.183.034c-.393-.014-.54-.02-1.126-4.314-1.041-7.636,4.167-17.036,4.39-17.432l.077-.138.15-.05a18.415,18.415,0,0,1,11.662-.115,9.93,9.93,0,0,0,8.011-4.673l.038-.067.06-.049c3.538-2.878,4.7-7.77,5.071-10.982-.842.706-1.749,1.4-2.71,2.076l-.068.039a39.594,39.594,0,0,1-33.306-2.06,27.492,27.492,0,0,0,3.542,2.468,35.743,35.743,0,0,0,19.152,4.574l2.02-.047-1.844.826c-4.472,2-9.11,3.664-13.2,5.13-3.959,1.418-7.378,2.643-9.968,3.9-4.639,2.256-11.436,2.845-19.307,3.527-10.36.9-22.1,1.915-31.09,7.241-1.854,1.1-3.5,2.072-4.965,2.934l-1.045.615.462-1.121a55.476,55.476,0,0,0,4.171-16.629c-.275,1.524-.656,3.25-1.186,5.131A58.4,58.4,0,0,1,122.427,146.2c-1.048,1.014-2.079,1.933-3.159,2.818-4.1,3.359-12.681,7.631-20.98,11.763-7.64,3.8-14.855,7.4-17.481,9.759-7.457,6.712-7.241,8.25-6.883,10.8a12.946,12.946,0,0,1-.059,4.765c-1.4,7.1-.3,9.794.871,10.8a3.061,3.061,0,0,0,2.82.5l.164-.059.155.077c4.4,2.2,6.592,10.9,5.647,12.788-.6,1.2-4.878,2.823-8.5,3.644a26.152,26.152,0,0,1-5.519.7m-5.666-3.071c.263.207.781.611,1.645,1.282,1.528,1.189,4.94,1.3,9.36.294,4.3-.976,7.636-2.581,7.953-3.215.339-.678.095-3.045-.892-5.688-1.081-2.9-2.624-5.047-4.252-5.936a3.8,3.8,0,0,1-3.447-.7c-1.938-1.668-2.321-5.561-1.138-11.573a12.074,12.074,0,0,0,.051-4.5c-.428-3.048-.3-4.811,7.145-11.515,2.708-2.437,9.972-6.054,17.663-9.883,8.259-4.112,16.8-8.363,20.827-11.664,1.063-.871,2.078-1.776,3.1-2.767a57.582,57.582,0,0,0,14.412-24.663,45.156,45.156,0,0,0,1.866-11.922l.811-.056c.551,4.828.336,12.654-3.67,22.862,1.2-.7,2.5-1.477,3.933-2.325,9.148-5.421,20.988-6.447,31.435-7.352,7.466-.647,14.518-1.258,19.021-3.448,2.631-1.28,6.069-2.512,10.05-3.938,3.533-1.265,7.473-2.677,11.352-4.325a35.886,35.886,0,0,1-17.653-4.712,23.191,23.191,0,0,1-6.224-5.066l-1.514-1.95,2.059,1.362a38.563,38.563,0,0,0,24.332,6.356,36.713,36.713,0,0,0,11.194-2.515,37.883,37.883,0,0,0,3.377-2.664l.755-.672-.079,1.008c-.252,3.219-1.29,9.109-5.409,12.506a10.552,10.552,0,0,1-8.75,5.02h-.08L213,119.1a17.78,17.78,0,0,0-11.031.052c-.643,1.2-5.156,9.909-4.218,16.786.315,2.309.5,3.218.588,3.572a31.571,31.571,0,0,0,12.181-3.215c.664-.757,6.535-7.222,12.64-6.366,6.172.862,8.7.531,12.833-6.559,1.919-3.294,6.992-12,9.687-19.63l-.014-.021.089-.194q.075-.217.148-.432c.7-2.254,3.555-14.366-9.634-30.535l.574-.571a60.132,60.132,0,0,1,7.867,8.212c-.627-11.47,5.176-15.2,5.433-15.361l2.553-1.58-2.041,2.2c-2.255,2.433-3.357,6.135-3.278,11.005A43.049,43.049,0,0,0,248.9,86.521c3.186,5.962,3.834,11.365,1.924,16.059a14.624,14.624,0,0,1-2.809,5.592c-1.481,1.824-1.593,2.665-1.425,3.049.337.775,2.279.907,4.157,1.035a17.461,17.461,0,0,1,5.121.851c2.677,1.09,3.937,3.1,5.049,4.88,1.456,2.327,2.509,4.008,6.13,2.845a33.317,33.317,0,0,0,3.873-3.754c2.905-3.03,6.521-6.8,9.092-8.42.324-.2.718-.441,1.167-.712a54.874,54.874,0,0,0,11.488-8.708A29.246,29.246,0,0,0,301.3,81.626l.049-.484.468.134c1.517.435,3.09.836,4.612,1.223,1.9.485,3.873.986,5.8,1.571,3.785,1.147,9.268,4.248,13.893,12.507a45.718,45.718,0,0,1,3.2,7.129c.03-7.731-1.934-14-6.1-19.586-3.781-5.063-9.31-9.551-18.488-15.005h0c-.943-.561-1.851-1.148-2.7-1.744l-.148-.1-.022-.18c-.094-.776-.2-1.536-.329-2.259l-.095-.55.553.079q1.123.159,2.254.311c1.929.263,3.924.535,5.885.876,3.831.668,9.534,2.788,14.952,9.1a36.81,36.81,0,0,1,3.894,5.487c-1.741-13.178-11.6-19.565-27.776-25.911a43.629,43.629,0,0,1-4.939-2.285l-.1-.056-.057-.1a89.606,89.606,0,0,0-13.287-17.961c-4.16-4.407-12.608-9.824-25.108-16.1-10.346-5.194-20.924-9.678-26.308-11.889l-.856-.351.195-.091a69.106,69.106,0,0,0-12.35-3.58C211.476.5,201.516-.163,193.268,4.126c-1.514.787-3,1.544-4.447,2.275-13.943,7.073-25.985,13.181-50,42.441l-.031.038-.04.029a56.093,56.093,0,0,0-5.313,4.743c-3.262,3.163-6.959,6.747-12.467,9.392C113.3,66.723,101.812,76.628,93.42,83.86c-3.551,3.06-6.618,5.7-8.7,7.287-.55.417-1.214.864-1.918,1.337a34.72,34.72,0,0,0-6.463,5.234l-.076.083-.108.032a58,58,0,0,0-12.066,4.951c-4.962,2.826-8.209,6.079-9.65,9.668-1.688,4.2-6.678,9.172-12.712,12.657-6.718,3.88-13.339,5.209-18.167,3.647l-.608-.2.435-.467a4.029,4.029,0,0,0,.907-1.548,3.812,3.812,0,0,0,.114-.461L24.42,126l.046-.069c1.139-1.708.875-3.61-.807-5.814-1.979-2.594-2.985-3.265-6.319-5.487-1.1-.735-2.474-1.65-4.208-2.855a27.834,27.834,0,0,0-8.319-4.154,21.752,21.752,0,0,1,5.417,4.521l-.576.569a28.467,28.467,0,0,0-3.677-2.12,23.613,23.613,0,0,1,4.835,7.849l.021.074a30.721,30.721,0,0,0,1.327,4.956l.013.035c1.21,3.333,2.695,5.494,4.073,5.927a8.268,8.268,0,0,0,4.126.252l.17-.035.143.1a12.152,12.152,0,0,0,8.942,1.658C44.219,129.232,53.336,124.65,57.5,117.4c2.711-4.723,6.321-6.242,12.458-5.242l.366.06-.026.37c-.493,7.045,1.178,15.746,4.969,25.88a41.346,41.346,0,0,1,2.564-8.023c2.811-6.27,6.781-9.583,11.483-9.583h2.936l-2.825.8a11.081,11.081,0,0,0-6.585,5.98,52.055,52.055,0,0,0-2.567,9.341c-1.166,5.585-2.173,10.409-6.135,12.1-2.731,1.164-5.515,4.228-7.64,8.405a26.268,26.268,0,0,0-3.044,12.733c.419,7.972-6.516,20.005-7.407,21.515,1.28,5.625,5.579,6.492,5.763,6.526l.2.037.092.181c.861,1.722.37,3.852-.106,5.912-.533,2.312-1.037,4.5.444,5.766a7.552,7.552,0,0,1,1.4,1.329m17.634-72.422-.809-.08a7.6,7.6,0,0,0-.062.985l.813.008c.014-.3.034-.6.059-.913" transform="translate(0 -0.005)" fill="url(#linear-gradient)"/>
    </g>
  </g>
</svg>
