<svg id="Raggruppa_18" data-name="Raggruppa 18" xmlns="http://www.w3.org/2000/svg" xmlns:xlink="http://www.w3.org/1999/xlink" width="200" height="212.878" viewBox="0 0 200 212.878">
  <defs>
    <linearGradient id="linear-gradient" x1="1.038" y1="0.193" x2="-0.115" y2="1.086" gradientUnits="objectBoundingBox">
      <stop offset="0" stop-color="#0058ff"/>
      <stop offset="0.332" stop-color="#148ff1"/>
      <stop offset="1" stop-color="#febe03"/>
    </linearGradient>
    <clipPath id="clip-path">
      <rect id="Rettangolo_19" data-name="Rettangolo 19" width="200" height="212.878" fill="url(#linear-gradient)"/>
    </clipPath>
  </defs>
  <g id="Raggruppa_17" data-name="Raggruppa 17" clip-path="url(#clip-path)">
    <path id="Tracciato_41" data-name="Tracciato 41" d="M199.509,212.391H.5v-5.617c0-2.34.54-3.89,1.7-4.883,1.444-1.233,3.781-1.536,7.555-.971.436-1.285.986-8.132.986-18.9V161.9H20.985V146.116c0-9.089,0-14.1-.878-14.622-.315-.189-1.223.3-1.953.687-1.175.63-3.983,2.008-4.664,1.23-.613-.7-7.869-14.814-7.869-15.919,0-.367,0-.98,38.057-17.168,21.982-9.35,37.606-17.041,38.407-18.356,2.994-8.4,11.784-13.049,19.586-10.331,4.228,1.478,7.594.537,25.739-7.173,11.38-4.838,19.7-8.426,21.226-9.123a60.1,60.1,0,0,0-2.928-7.812L142.182,39.3,163.821.9l3.554,4.493c5.262,6.654,16.386,30.886,19.511,42.5,4.608,17.123,4.286,67.752-.453,71.28a1.207,1.207,0,0,1-1.041.227c-.6,1.933-1.249,13.393-1.249,40.332v41.428h7.187c7.368,0,8.178.182,8.178,5.616ZM1.491,211.4H198.518v-4.626c0-4.537,0-4.625-7.187-4.625h-8.178V159.731c0-40.372,1.33-41.114,1.767-41.358a.6.6,0,0,1,.609.015.232.232,0,0,0,.314-.01c4.039-3.008,4.872-52.445.087-70.228C182.828,36.616,171.807,12.588,166.6,6l-2.637-3.334L143.285,39.362l3.334,7.775c3.593,8.375,3.086,8.72,2.783,8.925-.42.285-15.738,6.819-21.605,9.313-18.453,7.842-21.913,8.783-26.453,7.2-7.287-2.542-15.515,1.835-18.337,9.755-.725,2.027-23.685,12.418-38.94,18.908C22.944,110.219,8.7,116.562,6.677,117.7c.71,1.918,6.552,13.641,7.492,14.974a11.126,11.126,0,0,0,3.518-1.366c1.145-.613,2.131-1.143,2.929-.664,1.31.785,1.36,3.614,1.36,15.472v16.77H11.733v19.138c0,.759-.015,18.621-1.369,19.776l-.173.149-.31-.007c-3.578-.567-5.813-.342-7.035.7-.925.79-1.355,2.1-1.355,4.13Zm177.532-9.25H154.73c-.983,0-24.088-.02-25.192-1.809-2.782-4.5-22.92-103.752-21.548-106.2,1.74-3.109,41.973-20.363,47.725-21.271.671-.105,1.039-.058,1.277.163.909.84,6.641,13.782,10.042,21.742,5.132,12.02,9.519,21.215,10.245,21.95,1.376,1.4,1.743,27.97,1.743,43.451ZM156.184,73.788c-4.415,0-45.835,18.166-47.328,20.834-.77,3.268,19.324,101.638,21.526,105.2.847.6,11.088,1.339,24.349,1.339h23.3V160.172c0-24.906-.771-41.6-1.484-42.788-1.018-1.023-6.107-12.113-10.424-22.224-5.025-11.763-9.044-20.4-9.768-21.358a1.081,1.081,0,0,0-.171-.013M51.238,202.15H38.056V162.886H27.813V126.8L56.279,114.6c4.445-1.906,26.712-11.352,28.566-10.128a.634.634,0,0,1,.291.535c0,1.3-2.96,15.532-5.822,28.537-3.179,14.441-7.437,34.322-9.491,44.317-2.031,9.888-4.075,19.287-4.554,20.948h0c-.855,2.951-3.6,3.344-14.031,3.344m-12.191-.991H51.238c10.784,0,12.48-.56,13.079-2.63.475-1.642,2.509-11,4.535-20.872,2.055-10,6.314-29.886,9.5-44.331,3.252-14.781,5.5-25.908,5.771-28.022-1.769.072-10.931,3.119-27.449,10.2L28.8,127.458V161.9H39.047Zm57.525-.715H80.389l16.622-33.1,7.829,15.345c2.987,5.855,7.454,14.932,7.52,15.944a.633.633,0,0,1-.177.477c-1.228,1.316-15.024,1.332-15.611,1.332M82,199.452H96.572c8.277,0,13.638-.529,14.744-.953-.446-1.329-3.389-7.578-7.358-15.357l-6.94-13.6Zm34.952-11.909-.272-.046c-1.016-.227-5.917-10.333-7.977-14.668-6.976-14.67-7.1-15.252-4.412-20.8,1.343-2.773,2.241-4.149,3.337-4.021,1.824.218,2.957,4.379,6.492,20.794,2.555,11.878,3.57,18.133,3.019,18.589v0Zm-9.466-38.555c-.619,0-1.883,2.607-2.3,3.471-2.461,5.083-2.559,5.282,4.414,19.944,3.09,6.5,5.475,11.035,6.669,13.046-.35-2.679-1.477-8.833-3.115-16.441-2.1-9.762-4.274-19.855-5.639-20.02h-.026M77.046,185.652a.493.493,0,0,1-.17-.036c-.54-.187-.4-.871-.352-1.129.481-2.418,2.638-12.388,4.71-21.769l4.148-18.8,7.3,13.565-8.1,15.909c-5.693,11.181-7.024,12.255-7.54,12.255m8.728-38.91L82.2,162.932c-1.86,8.421-3.787,17.312-4.509,20.786a112.834,112.834,0,0,0,6.01-10.769L91.566,157.5Zm11.246,2.1-8.968-17.647L91.461,115.5c.139-.638,3.411-15.659,4.123-16.454a1.224,1.224,0,0,1,1.262-.487c1.318.346,2.5,3.03,5.648,17.351l3.4,15.468Zm-7.925-17.781,7.925,15.594,7.83-15.409-3.323-15.121c-1.16-5.274-3.573-16.249-4.933-16.606-.056-.014-.159.061-.273.189-.307.545-1.965,7.133-3.892,16Zm7.964-40.136a5.877,5.877,0,0,1-4.787-8.276A4.817,4.817,0,0,1,97.3,80.3c2.838.4,4.049,1.974,4.049,5.251,0,2.507-1.139,4.476-2.97,5.137a3.876,3.876,0,0,1-1.325.233m-.581-9.689a3.7,3.7,0,0,0-3.342,1.9A4.369,4.369,0,0,0,93.8,88.11c1.273,1.533,2.866,2.146,4.25,1.648,1.429-.515,2.316-2.128,2.316-4.205,0-2.782-.867-3.938-3.2-4.27h0a4.935,4.935,0,0,0-.686-.05" transform="translate(-0.005 -0.008)" fill="url(#linear-gradient)"/>
    <path id="Tracciato_42" data-name="Tracciato 42" d="M199.509,212.391H.5v-5.617c0-2.34.54-3.89,1.7-4.883a6.429,6.429,0,0,1,4.341-1.245,21.878,21.878,0,0,1,3.214.273c.436-1.285.986-8.132.986-18.9V161.9H20.985V146.116c0-9.089,0-14.1-.878-14.622a.346.346,0,0,0-.184-.043,5.407,5.407,0,0,0-1.769.729,11.418,11.418,0,0,1-3.987,1.462.867.867,0,0,1-.677-.232c-.613-.7-7.869-14.814-7.869-15.919,0-.367,0-.98,38.057-17.168,21.982-9.35,37.606-17.041,38.407-18.356a16.3,16.3,0,0,1,14.99-11.108,13.919,13.919,0,0,1,4.6.777,9.456,9.456,0,0,0,3.247.587c3.581,0,8.876-1.974,22.492-7.76,11.38-4.838,19.7-8.426,21.226-9.123a60.1,60.1,0,0,0-2.928-7.812L142.182,39.3,163.821.9l3.554,4.493c5.262,6.654,16.386,30.886,19.511,42.5C189.1,56.1,190.172,72,190.172,86.73c0,16-1.27,30.606-3.738,32.443a1.254,1.254,0,0,1-.751.264,1.221,1.221,0,0,1-.29-.037c-.6,1.933-1.249,13.393-1.249,40.332v41.428h7.187c7.368,0,8.178.182,8.178,5.616v5.617h0v-5.617c0-5.433-.81-5.616-8.178-5.616h-7.187V159.731c0-26.938.652-38.4,1.249-40.332a1.221,1.221,0,0,0,.29.037,1.254,1.254,0,0,0,.751-.264c2.467-1.837,3.738-16.444,3.738-32.443,0-14.726-1.076-30.63-3.285-38.837-3.125-11.619-14.249-35.851-19.511-42.5L163.821.9,142.182,39.3l3.526,8.225a60.1,60.1,0,0,1,2.928,7.812c-1.523.7-9.846,4.286-21.226,9.123-13.616,5.786-18.911,7.76-22.492,7.76a9.456,9.456,0,0,1-3.247-.587,13.919,13.919,0,0,0-4.6-.777,16.3,16.3,0,0,0-14.99,11.108c-.8,1.315-16.426,9.006-38.407,18.356-38.057,16.188-38.057,16.8-38.057,17.168,0,1.1,7.256,15.223,7.869,15.919a.867.867,0,0,0,.677.232,11.418,11.418,0,0,0,3.987-1.462,5.407,5.407,0,0,1,1.769-.729.346.346,0,0,1,.184.043c.878.526.878,5.533.878,14.622V161.9H10.742v20.129c0,10.764-.55,17.611-.986,18.9a21.878,21.878,0,0,0-3.214-.273A6.429,6.429,0,0,0,2.2,201.891c-1.161.993-1.7,2.544-1.7,4.883v5.617ZM1.491,211.4H198.518v-4.626c0-4.537,0-4.625-7.187-4.625h-8.178V159.731c0-40.372,1.33-41.114,1.767-41.358a.592.592,0,0,1,.609.015.306.306,0,0,0,.156.056.274.274,0,0,0,.159-.066c2.125-1.582,3.362-16.005,3.362-31.912,0-14.34-1.006-29.885-3.275-38.316C182.828,36.616,171.807,12.588,166.6,6l-2.637-3.334L143.285,39.362l3.334,7.775c2.455,5.72,3,7.694,3,8.436,0,.345-.117.424-.213.49-.42.285-15.738,6.819-21.605,9.313-13.716,5.829-19.149,7.845-22.9,7.845a10.365,10.365,0,0,1-3.554-.647,12.925,12.925,0,0,0-4.273-.723c-5.985,0-11.786,4.085-14.064,10.478-.725,2.027-23.685,12.418-38.94,18.908C22.944,110.219,8.7,116.562,6.677,117.7c.71,1.918,6.552,13.641,7.492,14.974a11.126,11.126,0,0,0,3.518-1.366,5.4,5.4,0,0,1,2.239-.85,1.308,1.308,0,0,1,.69.186c1.31.785,1.36,3.614,1.36,15.472v16.77H11.733v19.138c0,.759-.015,18.621-1.369,19.776l-.173.149-.31-.007a21.5,21.5,0,0,0-3.323-.3,5.589,5.589,0,0,0-3.712,1.006c-.925.79-1.355,2.1-1.355,4.13V211.4h0v-4.626c0-2.027.43-3.34,1.355-4.13a5.589,5.589,0,0,1,3.712-1.006,21.5,21.5,0,0,1,3.323.3l.31.007.173-.149c1.355-1.154,1.369-19.017,1.369-19.776V162.886H21.976v-16.77c0-11.858-.05-14.687-1.36-15.472a1.308,1.308,0,0,0-.69-.186,5.4,5.4,0,0,0-2.239.85,11.126,11.126,0,0,1-3.518,1.366c-.94-1.333-6.783-13.055-7.492-14.974,2.019-1.137,16.267-7.48,37.39-16.464,15.255-6.49,38.215-16.88,38.94-18.908,2.278-6.393,8.079-10.478,14.064-10.478a12.925,12.925,0,0,1,4.273.723,10.365,10.365,0,0,0,3.554.647c3.75,0,9.182-2.017,22.9-7.845,5.867-2.494,21.185-9.027,21.605-9.313.1-.065.213-.145.213-.49,0-.742-.541-2.716-3-8.436l-3.334-7.775L163.961,2.668,166.6,6c5.209,6.586,16.23,30.614,19.333,42.148,2.269,8.431,3.275,23.976,3.275,38.316,0,15.906-1.238,30.329-3.362,31.912a.274.274,0,0,1-.159.066.306.306,0,0,1-.156-.056.592.592,0,0,0-.609-.015c-.437.244-1.767.986-1.767,41.358V202.15h8.178c7.187,0,7.187.087,7.187,4.625V211.4Zm177.532-9.25H154.73c-.983,0-24.088-.02-25.192-1.809-2.689-4.35-21.614-97.328-21.614-105.654a1.391,1.391,0,0,1,.066-.548c1.74-3.109,41.973-20.363,47.725-21.271a3.833,3.833,0,0,1,.584-.054.955.955,0,0,1,.694.217c.909.84,6.641,13.782,10.042,21.742,5.132,12.02,9.519,21.215,10.245,21.95,1.376,1.4,1.743,27.97,1.743,43.451V202.15h0V160.172c0-15.481-.367-42.054-1.743-43.451-.726-.735-5.113-9.93-10.245-21.95-3.4-7.96-9.133-20.9-10.042-21.742a.955.955,0,0,0-.694-.217,3.833,3.833,0,0,0-.584.054c-5.752.908-45.985,18.163-47.725,21.271a1.391,1.391,0,0,0-.066.548c0,8.326,18.925,101.3,21.614,105.654,1.1,1.79,24.209,1.809,25.192,1.809ZM156.184,73.788h0c-4.415,0-45.835,18.166-47.328,20.834a1.4,1.4,0,0,0-.021.283c0,6.645,19.386,101.421,21.547,104.914.847.6,11.088,1.339,24.349,1.339h23.3V160.172c0-24.906-.771-41.6-1.484-42.788-1.018-1.023-6.107-12.113-10.424-22.224-5.025-11.763-9.044-20.4-9.768-21.358a1.081,1.081,0,0,0-.171-.013h0a1.081,1.081,0,0,1,.171.013c.723.956,4.743,9.6,9.768,21.358,4.317,10.111,9.407,21.2,10.424,22.224.713,1.186,1.484,17.882,1.484,42.788v40.987h-23.3c-13.261,0-23.5-.738-24.349-1.339-2.16-3.493-21.547-98.269-21.547-104.914a1.4,1.4,0,0,1,.021-.283c1.493-2.669,42.914-20.834,47.328-20.834ZM51.238,202.15H38.056V162.886H27.813V126.8L56.279,114.6c4.177-1.791,24.085-10.237,28.015-10.237a1.04,1.04,0,0,1,.551.109.634.634,0,0,1,.291.535c0,1.3-2.96,15.532-5.822,28.537-3.179,14.441-7.437,34.322-9.491,44.317-2.031,9.888-4.075,19.287-4.554,20.948h0c-.855,2.951-3.6,3.344-14.031,3.344h0c10.435,0,13.176-.393,14.031-3.344h0c.48-1.661,2.523-11.06,4.554-20.948,2.054-10,6.312-29.876,9.491-44.317,2.862-13,5.822-27.235,5.822-28.537a.634.634,0,0,0-.291-.535,1.04,1.04,0,0,0-.551-.109c-3.93,0-23.839,8.447-28.015,10.237L27.813,126.8v36.081H38.056V202.15Zm-12.191-.991H51.238c10.784,0,12.48-.56,13.079-2.63.475-1.642,2.509-11,4.535-20.872,2.055-10,6.314-29.886,9.5-44.331,3.252-14.781,5.5-25.908,5.771-28.022-1.769.072-10.931,3.119-27.449,10.2L28.8,127.458V161.9H39.047v39.263h0V161.9H28.8V127.458L56.67,115.507c16.518-7.084,25.68-10.131,27.449-10.2-.268,2.115-2.519,13.242-5.771,28.022-3.181,14.445-7.44,34.332-9.5,44.331-2.026,9.868-4.061,19.23-4.535,20.872-.6,2.07-2.295,2.63-13.079,2.63Zm57.525-.715H80.389l16.622-33.1,7.829,15.345c2.987,5.855,7.454,14.932,7.52,15.944,0,.013,0,.027,0,.041a.639.639,0,0,1-.179.436c-1.228,1.316-15.024,1.332-15.611,1.332h0c.587,0,14.383-.016,15.611-1.332a.639.639,0,0,0,.179-.436l0-.041c-.066-1.012-4.533-10.089-7.52-15.944l-7.829-15.345-16.622,33.1ZM82,199.452H96.572c8.277,0,13.638-.529,14.744-.953-.446-1.329-3.389-7.578-7.358-15.357l-6.94-13.6L82,199.452h0L97.018,169.54l6.94,13.6c3.969,7.78,6.912,14.029,7.358,15.357-1.106.424-6.467.953-14.744.953Zm34.952-11.909h0l-.272-.046c-1.016-.227-5.917-10.333-7.977-14.668-4.351-9.15-6.036-12.82-6.036-15.633,0-1.7.613-3.082,1.624-5.17,1.286-2.655,2.164-4.03,3.2-4.03a1.089,1.089,0,0,1,.139.009c1.824.218,2.957,4.379,6.492,20.794,2.1,9.785,3.165,15.755,3.165,17.809,0,.439-.049.7-.146.78v0l-.187.153h0l.187-.153v0c.1-.08.146-.341.146-.78,0-2.054-1.06-8.024-3.165-17.809-3.535-16.415-4.667-20.576-6.492-20.794a1.089,1.089,0,0,0-.139-.009c-1.035,0-1.912,1.375-3.2,4.03-1.011,2.088-1.624,3.473-1.624,5.17,0,2.813,1.685,6.483,6.036,15.633,2.06,4.334,6.961,14.441,7.977,14.668l.272.046Zm-9.466-38.555h0c-.619,0-1.883,2.607-2.3,3.471-.93,1.922-1.523,3.146-1.523,4.718,0,2.584,1.6,6.109,5.937,15.227,3.09,6.5,5.475,11.035,6.669,13.046-.35-2.679-1.477-8.833-3.115-16.441-2.1-9.762-4.274-19.855-5.639-20.02h0c1.365.164,3.539,10.258,5.639,20.02,1.638,7.608,2.766,13.762,3.115,16.441-1.194-2.012-3.579-6.549-6.669-13.046-4.335-9.117-5.937-12.642-5.937-15.227,0-1.572.593-2.8,1.523-4.718.419-.864,1.683-3.471,2.3-3.471ZM77.046,185.652h0a.493.493,0,0,1-.17-.036.648.648,0,0,1-.405-.682,2.319,2.319,0,0,1,.054-.447c.481-2.418,2.638-12.388,4.71-21.769l4.148-18.8,7.3,13.565-8.1,15.909c-5.693,11.181-7.024,12.255-7.54,12.255h0c.516,0,1.847-1.074,7.54-12.255l8.1-15.909-7.3-13.565-4.148,18.8c-2.072,9.381-4.229,19.351-4.71,21.769a2.319,2.319,0,0,0-.054.447.648.648,0,0,0,.405.682.493.493,0,0,0,.17.036Zm8.728-38.91h0L82.2,162.932c-1.86,8.421-3.787,17.312-4.509,20.786a112.834,112.834,0,0,0,6.01-10.769L91.566,157.5l-5.792-10.759h0L91.566,157.5,83.7,172.948a112.834,112.834,0,0,1-6.01,10.769c.721-3.473,2.649-12.365,4.509-20.786l3.573-16.19Zm11.246,2.1h0l-8.968-17.647L91.461,115.5c.139-.638,3.411-15.659,4.123-16.454a1.335,1.335,0,0,1,1-.522,1.039,1.039,0,0,1,.267.036c1.318.346,2.5,3.03,5.648,17.351l3.4,15.468L97.02,148.84h0l8.874-17.462-3.4-15.468c-3.148-14.321-4.33-17.005-5.648-17.351a1.039,1.039,0,0,0-.267-.036,1.335,1.335,0,0,0-1,.522c-.712.8-3.985,15.816-4.123,16.454l-3.409,15.693L97.02,148.84Zm-7.925-17.781h0l7.925,15.594,7.83-15.409-3.323-15.121c-1.16-5.274-3.573-16.249-4.933-16.606l-.014,0c-.058,0-.154.073-.259.191-.307.545-1.965,7.133-3.892,16l-3.335,15.348h0L92.43,115.71c1.927-8.872,3.585-15.459,3.892-16,.105-.118.2-.191.259-.191l.014,0c1.36.357,3.772,11.332,4.933,16.606l3.323,15.121-7.83,15.409-7.925-15.594Zm7.964-40.136h0a5.368,5.368,0,0,1-4.024-2.179,5.808,5.808,0,0,1-1.384-3.685,4.915,4.915,0,0,1,.621-2.412,4.726,4.726,0,0,1,4.222-2.4,5.646,5.646,0,0,1,.811.058c2.838.4,4.049,1.974,4.049,5.251,0,2.507-1.139,4.476-2.97,5.137a3.876,3.876,0,0,1-1.325.233h0a3.876,3.876,0,0,0,1.325-.233c1.831-.661,2.97-2.63,2.97-5.137,0-3.277-1.211-4.848-4.049-5.251a5.646,5.646,0,0,0-.811-.058,4.726,4.726,0,0,0-4.222,2.4,4.915,4.915,0,0,0-.621,2.412,5.808,5.808,0,0,0,1.384,3.685,5.368,5.368,0,0,0,4.024,2.179Zm-.581-9.689h0a3.7,3.7,0,0,0-3.342,1.9,3.954,3.954,0,0,0-.505,1.942A4.787,4.787,0,0,0,93.8,88.11a4.424,4.424,0,0,0,3.274,1.817,2.867,2.867,0,0,0,.976-.169c1.429-.515,2.316-2.128,2.316-4.205,0-2.782-.867-3.938-3.2-4.27h0a4.935,4.935,0,0,0-.686-.05h0a4.935,4.935,0,0,1,.686.05h0c2.331.332,3.2,1.488,3.2,4.27,0,2.078-.887,3.69-2.316,4.205a2.867,2.867,0,0,1-.976.169A4.424,4.424,0,0,1,93.8,88.11a4.787,4.787,0,0,1-1.166-3.037,3.954,3.954,0,0,1,.505-1.942,3.7,3.7,0,0,1,3.342-1.9Z" transform="translate(-0.005 -0.008)" fill="url(#linear-gradient)"/>
  </g>
</svg>
