<svg xmlns="http://www.w3.org/2000/svg" xmlns:xlink="http://www.w3.org/1999/xlink" width="231.939" height="200" viewBox="0 0 231.939 200">
  <defs>
    <linearGradient id="linear-gradient" x1="1.038" y1="0.193" x2="-0.115" y2="1.086" gradientUnits="objectBoundingBox">
      <stop offset="0" stop-color="#0058ff"/>
      <stop offset="0.332" stop-color="#148ff1"/>
      <stop offset="1" stop-color="#febe03"/>
    </linearGradient>
    <clipPath id="clip-path">
      <rect id="Rettangolo_21" data-name="Rettangolo 21" width="231.939" height="200" transform="translate(0 0)" fill="url(#linear-gradient)"/>
    </clipPath>
  </defs>
  <g id="Raggruppa_22" data-name="Raggruppa 22" transform="translate(0 -0.004)">
    <g id="Raggruppa_21" data-name="Raggruppa 21" transform="translate(0 0.004)" clip-path="url(#clip-path)">
      <path id="Tracciato_44" data-name="Tracciato 44" d="M159.4,77.1a.393.393,0,0,1-.393-.393,38.063,38.063,0,0,0-12.3-27.908,43.939,43.939,0,0,0-59.431,0A38.063,38.063,0,0,0,74.987,76.7a.393.393,0,0,1-.786,0,38.841,38.841,0,0,1,12.544-28.48,44.725,44.725,0,0,1,60.507,0A38.841,38.841,0,0,1,159.8,76.7a.393.393,0,0,1-.393.393m17.27,93.218V76.7a.393.393,0,0,0-.393-.393h-36.9a.393.393,0,0,0,0,.786h36.509v93.218a.393.393,0,0,0,.786,0m-118.563,0V77.1H94.619a.393.393,0,0,0,0-.786h-36.9a.393.393,0,0,0-.393.393v93.611a.393.393,0,0,0,.786,0m-13.066,29.3a.393.393,0,0,0-.393-.393H11.621V100.3h45.7v84.663a.393.393,0,1,0,.786,0V99.908a.393.393,0,0,0-.393-.393H11.228a.393.393,0,0,0-.393.393v99.7a.393.393,0,0,0,.393.393H44.651a.393.393,0,0,0,.393-.393m178.119,0v-99.7a.393.393,0,0,0-.393-.393H176.28a.393.393,0,0,0-.393.393v85.055a.393.393,0,1,0,.786,0V100.3h45.7v98.918H189.346a.393.393,0,1,0,0,.786H222.77a.393.393,0,0,0,.393-.393m-46.49-14.648V170.315a.393.393,0,0,0-.393-.393H57.717a.393.393,0,0,0-.393.393v14.648a.393.393,0,0,0,.393.393H176.28a.393.393,0,0,0,.393-.393M58.11,170.708H175.888V184.57H58.11Zm131.629,28.9V184.963a.393.393,0,0,0-.393-.393H44.651a.393.393,0,0,0-.393.393v14.648a.393.393,0,0,0,.393.393h144.7a.393.393,0,0,0,.393-.393m-144.7-14.255H188.954v13.862H45.044Zm131.614-85.34a.393.393,0,0,0-.168-.441L117.208,62.3a.393.393,0,0,0-.418,0L57.508,99.575a.393.393,0,0,0,.209.725H176.28a.393.393,0,0,0,.378-.284M117,63.1l57.919,36.418H59.08ZM72.758,170.315V99.908a.393.393,0,0,0-.393-.393H57.717a.393.393,0,0,0-.393.393v70.408a.393.393,0,0,0,.393.393H72.365a.393.393,0,0,0,.393-.393M58.11,100.3H71.973v69.622H58.11Zm41.337,70.015V99.908a.393.393,0,0,0-.393-.393H84.406a.393.393,0,0,0-.393.393v70.408a.393.393,0,0,0,.393.393H99.055a.393.393,0,0,0,.393-.393M84.8,100.3H98.662v69.622H84.8Zm65.185,70.015V99.908a.393.393,0,0,0-.393-.393H134.943a.393.393,0,0,0-.393.393v70.408a.393.393,0,0,0,.393.393h14.648a.393.393,0,0,0,.393-.393M135.336,100.3H149.2v69.622H135.336Zm41.337,70.015V99.908a.393.393,0,0,0-.393-.393H161.632a.393.393,0,0,0-.393.393v70.408a.393.393,0,0,0,.393.393H176.28a.393.393,0,0,0,.393-.393M162.025,100.3h13.862v69.622H162.025ZM58.11,114.556V99.908a.393.393,0,0,0-.393-.393H11.228a.393.393,0,0,0-.393.393v14.648a.393.393,0,0,0,.393.393h46.49a.393.393,0,0,0,.393-.393M11.621,100.3h45.7v13.862h-45.7Zm211.542,14.255V99.908a.393.393,0,0,0-.393-.393H176.28a.393.393,0,0,0-.393.393v14.648a.393.393,0,0,0,.393.393H222.77a.393.393,0,0,0,.393-.393M176.673,100.3h45.7v13.862h-45.7ZM41.938,143.722V129.488a.393.393,0,0,0-.393-.393H25.874a.393.393,0,0,0-.393.393v14.234a.393.393,0,0,0,.393.393H41.545a.393.393,0,0,0,.393-.393M26.267,129.881H41.153V143.33H26.267Zm15.671,43.555V159.2a.393.393,0,0,0-.393-.393H25.874a.393.393,0,0,0-.393.393v14.234a.393.393,0,0,0,.393.393H41.545a.393.393,0,0,0,.393-.393M26.267,159.595H41.153v13.449H26.267Zm181.487-15.872V129.488a.393.393,0,0,0-.393-.393H191.69a.393.393,0,0,0-.393.393v14.234a.393.393,0,0,0,.393.393h15.671a.393.393,0,0,0,.393-.393m-15.671-13.841h14.885V143.33H192.083Zm15.671,43.555V159.2a.393.393,0,0,0-.393-.393H191.69a.393.393,0,0,0-.393.393v14.234a.393.393,0,0,0,.393.393h15.671a.393.393,0,0,0,.393-.393m-15.671-13.841h14.885v13.449H192.083ZM117.392,36.832V.4a.393.393,0,0,0-.786,0V36.832a.393.393,0,1,0,.786,0m25.5-16.757V.4A.393.393,0,0,0,142.5,0H117a.393.393,0,0,0-.393.393V20.075a.393.393,0,0,0,.393.393h25.5a.393.393,0,0,0,.393-.393M117.392.79h24.716V19.683H117.392ZM231.939,199.611a.393.393,0,0,0-.393-.393H.393a.393.393,0,0,0,0,.786H231.546a.393.393,0,0,0,.393-.393" transform="translate(0 -0.004)" fill="url(#linear-gradient)"/>
    </g>
  </g>
</svg>
