<svg xmlns="http://www.w3.org/2000/svg" width="111" height="111" viewBox="0 0 111 111">
  <path id="Icon_awesome-plus-circle" data-name="Icon awesome-plus-circle" d="M55.562.563a55,55,0,1,0,55,55A54.991,54.991,0,0,0,55.562.563ZM87.5,61.772a2.669,2.669,0,0,1-2.661,2.661h-20.4v20.4A2.669,2.669,0,0,1,61.772,87.5H49.353a2.669,2.669,0,0,1-2.661-2.661v-20.4h-20.4a2.669,2.669,0,0,1-2.661-2.661V49.353a2.669,2.669,0,0,1,2.661-2.661h20.4v-20.4a2.669,2.669,0,0,1,2.661-2.661H61.772a2.669,2.669,0,0,1,2.661,2.661v20.4h20.4A2.669,2.669,0,0,1,87.5,49.353Z" transform="translate(-0.063 -0.063)" fill="#068cff" stroke="#0058ff" stroke-width="1"/>
</svg>
