<svg id="Raggruppa_366" data-name="Raggruppa 366" xmlns="http://www.w3.org/2000/svg" xmlns:xlink="http://www.w3.org/1999/xlink" width="107.492" height="93.724" viewBox="0 0 107.492 93.724">
  <defs>
    <clipPath id="clip-path">
      <rect id="Rettangolo_296" data-name="Rettangolo 296" width="107.492" height="93.724" fill="none" stroke="#fff" stroke-width="1"/>
    </clipPath>
  </defs>
  <g id="Gruppo_di_maschere_365" data-name="Gruppo di maschere 365" clip-path="url(#clip-path)">
    <path id="Tracciato_349" data-name="Tracciato 349" d="M79.233,20.7A2.911,2.911,0,1,0,76.321,23.6,2.911,2.911,0,0,0,79.233,20.7Z" transform="translate(-38.898 -11.236)" fill="#0058ff"/>
    <path id="Tracciato_376" data-name="Tracciato 376" d="M79.233,20.7A2.911,2.911,0,1,0,76.321,23.6,2.911,2.911,0,0,0,79.233,20.7Z" transform="translate(21.71 -10.553)" fill="#0058ff"/>
    <line id="Linea_27" data-name="Linea 27" x2="102.136" transform="translate(1.508 92.215)" fill="none" stroke="#fff" stroke-linecap="round" stroke-miterlimit="10" stroke-width="1"/>
    <rect id="Rettangolo_292" data-name="Rettangolo 292" width="11.224" height="35.845" transform="translate(1.508 46.84)" fill="none" stroke="#fff" stroke-miterlimit="10" stroke-width="1"/>
    <rect id="Rettangolo_293" data-name="Rettangolo 293" width="11.224" height="54.45" transform="translate(92.42 28.235)" fill="none" stroke="#fff" stroke-miterlimit="10" stroke-width="1"/>
    <rect id="Rettangolo_294" data-name="Rettangolo 294" width="11.224" height="55.133" transform="translate(31.812 27.552)" fill="none" stroke="#fff" stroke-miterlimit="10" stroke-width="1"/>
    <path id="Tracciato_351" data-name="Tracciato 351" d="M74.529,10.951A7.951,7.951,0,1,0,66.578,18.9,7.951,7.951,0,0,0,74.529,10.951Z" transform="translate(-29.153 -1.492)" fill="none" stroke="#fff" stroke-miterlimit="10" stroke-width="1"/>
    <path id="Tracciato_352" data-name="Tracciato 352" d="M195.088,12.309a7.951,7.951,0,1,0-7.951,7.951A7.951,7.951,0,0,0,195.088,12.309Z" transform="translate(-89.104 -2.167)" fill="none" stroke="#fff" stroke-miterlimit="10" stroke-width="1"/>
    <rect id="Rettangolo_295" data-name="Rettangolo 295" width="11.224" height="37.893" transform="translate(62.116 44.792)" fill="none" stroke="#fff" stroke-miterlimit="10" stroke-width="1"/>
    <circle id="Ellisse_15" data-name="Ellisse 15" cx="4.779" cy="4.779" r="4.779" transform="translate(62.949 21.92)" fill="none" stroke="#fff" stroke-miterlimit="10" stroke-width="1"/>
    <circle id="Ellisse_16" data-name="Ellisse 16" cx="4.779" cy="4.779" r="4.779" transform="translate(1.37 25.194) rotate(-13.283)" fill="none" stroke="#fff" stroke-miterlimit="10" stroke-width="1"/>
    <line id="Linea_28" data-name="Linea 28" y1="12.078" x2="19.89" transform="translate(10.701 13.51)" fill="none" stroke="#fff" stroke-miterlimit="10" stroke-width="1"/>
    <line id="Linea_29" data-name="Linea 29" x2="18.196" y2="11.419" transform="translate(44.753 12.549)" fill="none" stroke="#fff" stroke-miterlimit="10" stroke-width="1"/>
    <line id="Linea_30" data-name="Linea 30" y1="10.86" x2="18.931" transform="translate(71.935 13.569)" fill="none" stroke="#fff" stroke-miterlimit="10" stroke-width="1"/>
  </g>
</svg>
