<?xml version="1.0" standalone="no"?>
<!DOCTYPE svg PUBLIC "-//W3C//DTD SVG 20010904//EN"
 "http://www.w3.org/TR/2001/REC-SVG-20010904/DTD/svg10.dtd">
<svg version="1.0" xmlns="http://www.w3.org/2000/svg"
 width="700.000000pt" height="700.000000pt" viewBox="0 0 700.000000 700.000000"
 preserveAspectRatio="xMidYMid meet">
<metadata>
Created by potrace 1.14, written by Peter Selinger 2001-2017
</metadata>
<g transform="translate(0.000000,700.000000) scale(0.100000,-0.100000)"
fill="#000000" stroke="none">
<path d="M3335 6993 c-16 -2 -74 -13 -128 -24 -244 -50 -431 -136 -622 -285
-85 -66 -185 -160 -185 -173 0 -5 10 -15 23 -24 12 -8 31 -23 42 -33 11 -11
70 -62 130 -114 351 -305 731 -702 1006 -1051 168 -214 361 -489 515 -734 172
-273 477 -859 540 -1037 22 -63 53 -184 61 -242 10 -66 10 -308 1 -363 -4 -24
-5 -43 -3 -43 7 0 1765 1757 1765 1764 0 10 -1928 1935 -2005 2002 -205 178
-432 287 -710 340 -74 15 -356 25 -430 17z"/>
<path d="M1287 5406 c-609 -610 -959 -968 -996 -1019 -144 -198 -238 -428
-276 -676 -20 -128 -13 -370 14 -501 57 -272 185 -524 361 -713 111 -119 1431
-1439 1435 -1435 2 2 6 82 9 178 8 238 21 455 31 510 2 14 7 54 10 90 3 36 7
76 9 90 2 14 7 48 11 75 12 94 16 120 31 210 9 49 17 92 19 95 1 3 6 26 9 52
7 55 46 228 83 373 13 55 26 107 28 116 2 9 13 49 25 90 131 450 278 826 467
1204 199 395 360 661 607 998 56 76 107 147 115 157 12 18 3 30 -95 142 -183
208 -389 419 -573 588 -57 52 -109 100 -115 105 -6 6 -40 35 -76 65 -36 30
-67 57 -70 60 -23 24 -110 90 -116 89 -5 -1 -431 -425 -947 -943z"/>
<path d="M5580 3418 c-578 -579 -1104 -1108 -1168 -1176 -183 -192 -339 -297
-548 -367 -337 -113 -684 -87 -1008 77 -252 127 -498 398 -592 652 -16 43 -19
46 -26 27 -4 -12 -10 -32 -13 -44 -2 -12 -9 -40 -14 -62 -5 -22 -12 -51 -15
-65 -2 -14 -14 -72 -25 -130 -18 -91 -30 -163 -56 -331 -6 -37 -9 -63 -20
-164 -3 -33 -8 -73 -10 -90 -2 -16 -7 -69 -10 -116 -4 -47 -8 -105 -11 -130
-2 -24 -6 -185 -8 -358 l-4 -314 207 -206 c282 -279 322 -315 456 -398 97 -60
276 -142 345 -158 8 -2 42 -11 76 -19 250 -66 587 -54 832 29 176 60 318 137
463 253 66 52 2039 2017 2187 2177 50 55 136 173 189 260 79 130 157 366 182
550 20 148 -1 463 -38 558 -6 15 -8 27 -6 27 7 0 -55 169 -88 240 -53 114
-196 330 -218 330 -4 0 -480 -474 -1059 -1052z"/>
</g>
</svg>
