<?xml version="1.0" encoding="UTF-8"?><svg id="a" xmlns="http://www.w3.org/2000/svg" viewBox="0 0 260 260.12"><defs><style>.b{fill:#0114ac;}.c{fill:#2176ff;}.d{fill:#33a1fd;}</style></defs><path class="d" d="M118.78,58.5c1.18,1.34,2.37,2.68,3.52,4.05-17.99,23.09-31.9,49.07-41.35,77.29l-.21,.9h0c-8.56,25.91-12.82,52.91-12.71,80.41l-51.83-51.9c-21.61-21.64-21.6-56.83,.03-78.46L83.05,23.97c2.06,1.68,4.08,3.39,6.09,5.12,1.22,1.05,2.46,2.07,3.67,3.14,3.41,3.04,6.75,6.15,10.01,9.33,.25,.24,.52,.47,.76,.72,3.5,3.43,6.89,6.96,10.2,10.55,1.06,1.15,2.07,2.35,3.11,3.51,.64,.71,1.25,1.44,1.88,2.16Z"/><path class="c" d="M240.89,87.9L169.24,16.25C158.76,5.77,144.83,0,130,0s-28.76,5.77-39.24,16.25l-1.87,1.87c15.29,12.56,29.36,26.57,41.84,41.7,16.95,20.81,30.95,43.68,41.62,68,3.33,8.43,4.13,17.46,2.56,26.05l65.98-65.98Z"/><path class="b" d="M76.36,229.48l14.39,14.39c10.48,10.48,24.42,16.25,39.24,16.25h.01c14.83,0,28.77-5.78,39.25-16.27l74.55-74.61c20.65-20.67,21.57-53.71,2.76-75.48l-81.51,81.59c-2.53,3.16-5.18,5.76-8.16,8.04-16.93,12.85-40.57,12.84-57.49,0-7.55-5.81-13.05-13.49-16.1-22.07-5.47,22.15-7.79,44.99-6.93,68.15Z"/></svg>